Coordinates
version=1
nRows=20
nColumns=38
inDegrees=no

Units are S.I. units (second, meters, Newtons, ...)
If the header above contains a line with 'inDegrees', this indicates whether rotational values are in degrees (yes) or radians (no).

endheader
time	pelvis_tilt	pelvis_list	pelvis_rotation	pelvis_tx	pelvis_ty	pelvis_tz	hip_flexion_r	hip_adduction_r	hip_rotation_r	knee_angle_r	ankle_angle_r	subtalar_angle_r	mtp_angle_r	hip_flexion_l	hip_adduction_l	hip_rotation_l	knee_angle_l	ankle_angle_l	subtalar_angle_l	mtp_angle_l	lumbar_extension	lumbar_bending	lumbar_rotation	arm_flex_r	arm_add_r	arm_rot_r	elbow_flex_r	pro_sup_r	wrist_flex_r	wrist_dev_r	arm_flex_l	arm_add_l	arm_rot_l	elbow_flex_l	pro_sup_l	wrist_flex_l	wrist_dev_l
0	2.95768	1.40767	-1.38834	0.702591	-0.537011	0.944555	-0.0359592	-0.0806359	-0.335674	0.370794	0.0447032	0	0	-0.0559193	-0.0406725	-0.321571	0.19731	-0.00420615	0	0	-0.315596	-0.00621394	-0.00921184	1.07138	-0.184098	0.759417	0.645222	1.5708	0	0	0.908992	-0.204779	0.0822671	0.81168	1.0266	0	0
0.01	2.97424	1.40849	-1.41185	0.703864	-0.535474	0.944457	-0.0302829	-0.083981	-0.331778	0.381283	0.0394323	0	0	-0.0629235	-0.0362578	-0.323676	0.188938	-0.00469813	0	0	-0.314136	-0.0104596	-0.0022809	1.06791	-0.186382	0.756633	0.650159	1.5708	0	0	0.906081	-0.205856	0.0858795	0.81566	1.02538	0	0
0.02	2.98812	1.40691	-1.43148	0.704875	-0.533801	0.944693	-0.0297186	-0.0858318	-0.326554	0.390234	0.0442682	0	0	-0.072943	-0.0320952	-0.325057	0.179144	-0.006778	0	0	-0.314625	-0.0130912	0.00367782	1.06437	-0.188807	0.754456	0.654568	1.5708	0	0	0.902249	-0.205875	0.0856837	0.820071	1.02489	0	0
0.03	3.0002	1.4033	-1.44515	0.705458	-0.53235	0.945142	-0.0345841	-0.0861888	-0.324275	0.393503	0.0464655	0	0	-0.0834129	-0.0286787	-0.322018	0.170813	-0.00930702	0	0	-0.31781	-0.0138795	0.00546579	1.06211	-0.190714	0.753045	0.658596	1.5708	0	0	0.899094	-0.205598	0.0837442	0.824604	1.02449	0	0
0.04	3.01203	1.39885	-1.45853	0.706048	-0.530783	0.945717	-0.0435589	-0.0857332	-0.321615	0.389444	0.0437008	0	0	-0.0961123	-0.0249036	-0.318114	0.160176	-0.0129069	0	0	-0.321563	-0.014572	0.00702286	1.05977	-0.192409	0.75167	0.662962	1.5708	0	0	0.895034	-0.205203	0.0825319	0.829335	1.02333	0	0
0.05	3.0189	1.3958	-1.46785	0.706807	-0.529173	0.946191	-0.0526494	-0.0845825	-0.318922	0.381385	0.0405035	0	0	-0.107562	-0.0218563	-0.315578	0.149159	-0.0162288	0	0	-0.323436	-0.0148935	0.00954635	1.05738	-0.193981	0.751231	0.66702	1.5708	0	0	0.889578	-0.204717	0.0796774	0.835407	1.02351	0	0
0.06	3.01948	1.39427	-1.47149	0.707666	-0.527672	0.946546	-0.0594032	-0.0836713	-0.318645	0.374136	0.0384941	0	0	-0.116724	-0.0200977	-0.313855	0.139181	-0.0190942	0	0	-0.323608	-0.0143658	0.0124939	1.05505	-0.195023	0.750696	0.670796	1.5708	0	0	0.883232	-0.203629	0.0722097	0.842292	1.02423	0	0
0.07	3.01565	1.39424	-1.47088	0.708582	-0.526309	0.946809	-0.0630328	-0.0833848	-0.321265	0.369366	0.0366407	0	0	-0.122998	-0.019565	-0.31388	0.131234	-0.0213161	0	0	-0.322237	-0.0132578	0.0156465	1.05257	-0.195506	0.749328	0.67414	1.5708	0	0	0.876413	-0.202006	0.0629632	0.84921	1.02344	0	0
0.08	3.01101	1.39539	-1.46904	0.709526	-0.524994	0.946968	-0.0646186	-0.0835154	-0.325497	0.366244	0.0353694	0	0	-0.126989	-0.0196871	-0.315321	0.125025	-0.0228015	0	0	-0.31956	-0.012179	0.0183844	1.04988	-0.195662	0.747882	0.677286	1.5708	0	0	0.869156	-0.200813	0.0541257	0.856719	1.02232	0	0
0.09	3.00697	1.39688	-1.46717	0.710488	-0.523616	0.947063	-0.0662357	-0.0832998	-0.329584	0.36316	0.0353484	0	0	-0.13054	-0.0199772	-0.316593	0.119082	-0.0241165	0	0	-0.316376	-0.011288	0.0204729	1.04687	-0.195661	0.746686	0.680689	1.5708	0	0	0.861442	-0.20015	0.0453483	0.864783	1.02109	0	0
0.1	3.00487	1.39828	-1.46667	0.711435	-0.522153	0.947151	-0.0690151	-0.0826344	-0.333271	0.358793	0.0367532	0	0	-0.134872	-0.0197965	-0.316774	0.111868	-0.0261562	0	0	-0.312952	-0.0108369	0.0221334	1.04281	-0.195688	0.744612	0.685069	1.5708	0	0	0.853909	-0.199373	0.036078	0.871665	1.01889	0	0
0.11	3.00256	1.39935	-1.46547	0.712382	-0.520619	0.947254	-0.073498	-0.0808404	-0.336599	0.352054	0.0374704	0	0	-0.139863	-0.0197004	-0.315954	0.104187	-0.0282686	0	0	-0.309633	-0.0103802	0.0235099	1.03794	-0.195765	0.741912	0.690174	1.5708	0	0	0.846648	-0.198823	0.0276406	0.877727	1.01628	0	0
0.12	2.99838	1.40012	-1.46248	0.713389	-0.519003	0.947385	-0.0795397	-0.0776873	-0.338669	0.34285	0.0372346	0	0	-0.145522	-0.0199579	-0.314912	0.0960488	-0.0304426	0	0	-0.306349	-0.00970716	0.0250082	1.03241	-0.19589	0.738789	0.695764	1.5708	0	0	0.83922	-0.198969	0.0203066	0.884007	1.01343	0	0
0.13	2.99134	1.40033	-1.45686	0.714435	-0.517332	0.947553	-0.0871597	-0.0732069	-0.338927	0.331521	0.0358737	0	0	-0.151899	-0.0207721	-0.31391	0.0878201	-0.0324191	0	0	-0.30334	-0.00868252	0.0270588	1.02609	-0.196187	0.734627	0.701885	1.5708	0	0	0.831932	-0.19895	0.0131463	0.889827	1.01017	0	0
0.14	2.98617	1.40021	-1.45254	0.715421	-0.515734	0.947697	-0.0956955	-0.068525	-0.338757	0.31899	0.0343031	0	0	-0.158622	-0.0211944	-0.311346	0.0794344	-0.0347486	0	0	-0.300795	-0.00802817	0.0289407	1.01927	-0.197032	0.729861	0.709143	1.5708	0	0	0.825418	-0.199083	0.00753433	0.894822	1.00618	0	0
0.15	2.98278	1.3998	-1.44942	0.716321	-0.5142	0.947843	-0.104804	-0.0639808	-0.338551	0.305986	0.0324933	0	0	-0.165644	-0.0212819	-0.307871	0.0709104	-0.0374802	0	0	-0.298806	-0.00753421	0.0300156	1.01244	-0.197882	0.724867	0.71709	1.5708	0	0	0.819074	-0.200599	0.00471322	0.899813	1.00181	0	0
0.16	2.97892	1.39911	-1.44573	0.717187	-0.512689	0.947994	-0.114126	-0.0592755	-0.337215	0.292986	0.0306227	0	0	-0.173275	-0.0213517	-0.303857	0.0616633	-0.0404791	0	0	-0.297126	-0.00695992	0.030929	1.00533	-0.198704	0.718555	0.725889	1.5708	0	0	0.812812	-0.203099	0.00414504	0.904538	0.997642	0	0
0.17	2.974	1.39863	-1.44101	0.718025	-0.51123	0.94812	-0.122707	-0.0545866	-0.334517	0.280862	0.0288225	0	0	-0.180541	-0.0216044	-0.300108	0.0525563	-0.0431663	0	0	-0.295338	-0.00624463	0.0316802	0.998296	-0.19916	0.711796	0.734903	1.5708	0	0	0.806442	-0.206019	0.00391239	0.9093	0.99392	0	0
0.18	2.96807	1.39882	-1.43504	0.718832	-0.509759	0.948163	-0.130157	-0.0501175	-0.331599	0.269649	0.0271116	0	0	-0.18662	-0.0220445	-0.296158	0.0441104	-0.0456178	0	0	-0.292645	-0.00546037	0.0322378	0.990441	-0.199791	0.704492	0.744821	1.5708	0	0	0.799882	-0.209043	0.00381012	0.914729	0.990264	0	0
0.19	2.96096	1.39914	-1.42751	0.719544	-0.508292	0.948173	-0.137098	-0.0459091	-0.329739	0.259155	0.0256994	0	0	-0.192329	-0.0226873	-0.291852	0.0358916	-0.0478624	0	0	-0.289803	-0.00429526	0.0325237	0.982067	-0.200904	0.69663	0.755989	1.5708	0	0	0.79327	-0.211733	0.00298863	0.920899	0.98657	0	0
